<svg width="272" height="124" viewBox="0 0 272 124" fill="none" xmlns="http://www.w3.org/2000/svg">
<g filter="url(#filter0_d)">
<circle cx="210" cy="58" r="58" fill="#8338F5"/>
</g>
<path d="M73.024 36.2L58.368 81H47.232L37.376 50.664L27.2 81H16.128L1.408 36.2H12.16L22.272 67.688L32.832 36.2H42.432L52.672 67.944L63.104 36.2H73.024ZM109.274 63.912C109.274 64.04 109.21 64.936 109.082 66.6H83.0335C83.5028 68.7333 84.6122 70.4187 86.3615 71.656C88.1108 72.8933 90.2868 73.512 92.8895 73.512C94.6815 73.512 96.2602 73.256 97.6255 72.744C99.0335 72.1893 100.335 71.336 101.53 70.184L106.842 75.944C103.599 79.656 98.8628 81.512 92.6335 81.512C88.7508 81.512 85.3162 80.7653 82.3295 79.272C79.3428 77.736 77.0388 75.624 75.4175 72.936C73.7962 70.248 72.9855 67.1973 72.9855 63.784C72.9855 60.4133 73.7748 57.384 75.3535 54.696C76.9748 51.9653 79.1722 49.8533 81.9455 48.36C84.7615 46.824 87.8975 46.056 91.3535 46.056C94.7242 46.056 97.7748 46.7813 100.506 48.232C103.236 49.6827 105.37 51.7733 106.906 54.504C108.484 57.192 109.274 60.328 109.274 63.912ZM91.4175 53.608C89.1562 53.608 87.2575 54.248 85.7215 55.528C84.1855 56.808 83.2468 58.5573 82.9055 60.776H99.8655C99.5242 58.6 98.5855 56.872 97.0495 55.592C95.5135 54.2693 93.6362 53.608 91.4175 53.608ZM136.273 46.056C139.473 46.056 142.374 46.8027 144.977 48.296C147.622 49.7467 149.691 51.816 151.185 54.504C152.678 57.1493 153.425 60.2427 153.425 63.784C153.425 67.3253 152.678 70.44 151.185 73.128C149.691 75.7733 147.622 77.8427 144.977 79.336C142.374 80.7867 139.473 81.512 136.273 81.512C131.537 81.512 127.931 80.0187 125.457 77.032V81H115.921V33.512H125.905V50.216C128.422 47.4427 131.878 46.056 136.273 46.056ZM134.545 73.32C137.105 73.32 139.195 72.4667 140.817 70.76C142.481 69.0107 143.312 66.6853 143.312 63.784C143.312 60.8827 142.481 58.5787 140.817 56.872C139.195 55.1227 137.105 54.248 134.545 54.248C131.985 54.248 129.873 55.1227 128.208 56.872C126.587 58.5787 125.777 60.8827 125.777 63.784C125.777 66.6853 126.587 69.0107 128.208 70.76C129.873 72.4667 131.985 73.32 134.545 73.32ZM182.316 79.336C181.335 80.0613 180.119 80.616 178.668 81C177.26 81.3413 175.767 81.512 174.188 81.512C170.092 81.512 166.913 80.4667 164.652 78.376C162.433 76.2853 161.324 73.2133 161.324 69.16V55.016H156.012V47.336H161.324V38.952H171.308V47.336H179.884V55.016H171.308V69.032C171.308 70.4827 171.671 71.6133 172.396 72.424C173.164 73.192 174.231 73.576 175.596 73.576C177.175 73.576 178.519 73.1493 179.628 72.296L182.316 79.336ZM220.586 63.912C220.586 64.04 220.522 64.936 220.394 66.6H194.346C194.815 68.7333 195.925 70.4187 197.674 71.656C199.423 72.8933 201.599 73.512 204.202 73.512C205.994 73.512 207.573 73.256 208.938 72.744C210.346 72.1893 211.647 71.336 212.842 70.184L218.154 75.944C214.911 79.656 210.175 81.512 203.946 81.512C200.063 81.512 196.629 80.7653 193.642 79.272C190.655 77.736 188.351 75.624 186.73 72.936C185.109 70.248 184.298 67.1973 184.298 63.784C184.298 60.4133 185.087 57.384 186.666 54.696C188.287 51.9653 190.485 49.8533 193.258 48.36C196.074 46.824 199.21 46.056 202.666 46.056C206.037 46.056 209.087 46.7813 211.818 48.232C214.549 49.6827 216.682 51.7733 218.218 54.504C219.797 57.192 220.586 60.328 220.586 63.912ZM202.73 53.608C200.469 53.608 198.57 54.248 197.034 55.528C195.498 56.808 194.559 58.5573 194.218 60.776H211.178C210.837 58.6 209.898 56.872 208.362 55.592C206.826 54.2693 204.949 53.608 202.73 53.608ZM262.305 33.512V81H252.769V77.032C250.294 80.0187 246.71 81.512 242.017 81.512C238.774 81.512 235.83 80.7867 233.185 79.336C230.582 77.8853 228.534 75.816 227.041 73.128C225.548 70.44 224.801 67.3253 224.801 63.784C224.801 60.2427 225.548 57.128 227.041 54.44C228.534 51.752 230.582 49.6827 233.185 48.232C235.83 46.7813 238.774 46.056 242.017 46.056C246.412 46.056 249.846 47.4427 252.321 50.216V33.512H262.305ZM243.745 73.32C246.262 73.32 248.353 72.4667 250.017 70.76C251.681 69.0107 252.513 66.6853 252.513 63.784C252.513 60.8827 251.681 58.5787 250.017 56.872C248.353 55.1227 246.262 54.248 243.745 54.248C241.185 54.248 239.073 55.1227 237.409 56.872C235.745 58.5787 234.913 60.8827 234.913 63.784C234.913 66.6853 235.745 69.0107 237.409 70.76C239.073 72.4667 241.185 73.32 243.745 73.32Z" fill="black"/>
<mask id="mask0" mask-type="alpha" maskUnits="userSpaceOnUse" x="1" y="33" width="262" height="49">
<path d="M73.024 36.2L58.368 81H47.232L37.376 50.664L27.2 81H16.128L1.408 36.2H12.16L22.272 67.688L32.832 36.2H42.432L52.672 67.944L63.104 36.2H73.024ZM109.274 63.912C109.274 64.04 109.21 64.936 109.082 66.6H83.0335C83.5028 68.7333 84.6122 70.4187 86.3615 71.656C88.1108 72.8933 90.2868 73.512 92.8895 73.512C94.6815 73.512 96.2602 73.256 97.6255 72.744C99.0335 72.1893 100.335 71.336 101.53 70.184L106.842 75.944C103.599 79.656 98.8628 81.512 92.6335 81.512C88.7508 81.512 85.3162 80.7653 82.3295 79.272C79.3428 77.736 77.0388 75.624 75.4175 72.936C73.7962 70.248 72.9855 67.1973 72.9855 63.784C72.9855 60.4133 73.7748 57.384 75.3535 54.696C76.9748 51.9653 79.1722 49.8533 81.9455 48.36C84.7615 46.824 87.8975 46.056 91.3535 46.056C94.7242 46.056 97.7748 46.7813 100.506 48.232C103.236 49.6827 105.37 51.7733 106.906 54.504C108.484 57.192 109.274 60.328 109.274 63.912ZM91.4175 53.608C89.1562 53.608 87.2575 54.248 85.7215 55.528C84.1855 56.808 83.2468 58.5573 82.9055 60.776H99.8655C99.5242 58.6 98.5855 56.872 97.0495 55.592C95.5135 54.2693 93.6362 53.608 91.4175 53.608ZM136.273 46.056C139.473 46.056 142.374 46.8027 144.977 48.296C147.622 49.7467 149.691 51.816 151.185 54.504C152.678 57.1493 153.425 60.2427 153.425 63.784C153.425 67.3253 152.678 70.44 151.185 73.128C149.691 75.7733 147.622 77.8427 144.977 79.336C142.374 80.7867 139.473 81.512 136.273 81.512C131.537 81.512 127.931 80.0187 125.457 77.032V81H115.921V33.512H125.905V50.216C128.422 47.4427 131.878 46.056 136.273 46.056ZM134.545 73.32C137.105 73.32 139.195 72.4667 140.817 70.76C142.481 69.0107 143.312 66.6853 143.312 63.784C143.312 60.8827 142.481 58.5787 140.817 56.872C139.195 55.1227 137.105 54.248 134.545 54.248C131.985 54.248 129.873 55.1227 128.208 56.872C126.587 58.5787 125.777 60.8827 125.777 63.784C125.777 66.6853 126.587 69.0107 128.208 70.76C129.873 72.4667 131.985 73.32 134.545 73.32ZM182.316 79.336C181.335 80.0613 180.119 80.616 178.668 81C177.26 81.3413 175.767 81.512 174.188 81.512C170.092 81.512 166.913 80.4667 164.652 78.376C162.433 76.2853 161.324 73.2133 161.324 69.16V55.016H156.012V47.336H161.324V38.952H171.308V47.336H179.884V55.016H171.308V69.032C171.308 70.4827 171.671 71.6133 172.396 72.424C173.164 73.192 174.231 73.576 175.596 73.576C177.175 73.576 178.519 73.1493 179.628 72.296L182.316 79.336ZM220.586 63.912C220.586 64.04 220.522 64.936 220.394 66.6H194.346C194.815 68.7333 195.925 70.4187 197.674 71.656C199.423 72.8933 201.599 73.512 204.202 73.512C205.994 73.512 207.573 73.256 208.938 72.744C210.346 72.1893 211.647 71.336 212.842 70.184L218.154 75.944C214.911 79.656 210.175 81.512 203.946 81.512C200.063 81.512 196.629 80.7653 193.642 79.272C190.655 77.736 188.351 75.624 186.73 72.936C185.109 70.248 184.298 67.1973 184.298 63.784C184.298 60.4133 185.087 57.384 186.666 54.696C188.287 51.9653 190.485 49.8533 193.258 48.36C196.074 46.824 199.21 46.056 202.666 46.056C206.037 46.056 209.087 46.7813 211.818 48.232C214.549 49.6827 216.682 51.7733 218.218 54.504C219.797 57.192 220.586 60.328 220.586 63.912ZM202.73 53.608C200.469 53.608 198.57 54.248 197.034 55.528C195.498 56.808 194.559 58.5573 194.218 60.776H211.178C210.837 58.6 209.898 56.872 208.362 55.592C206.826 54.2693 204.949 53.608 202.73 53.608ZM262.305 33.512V81H252.769V77.032C250.294 80.0187 246.71 81.512 242.017 81.512C238.774 81.512 235.83 80.7867 233.185 79.336C230.582 77.8853 228.534 75.816 227.041 73.128C225.548 70.44 224.801 67.3253 224.801 63.784C224.801 60.2427 225.548 57.128 227.041 54.44C228.534 51.752 230.582 49.6827 233.185 48.232C235.83 46.7813 238.774 46.056 242.017 46.056C246.412 46.056 249.846 47.4427 252.321 50.216V33.512H262.305ZM243.745 73.32C246.262 73.32 248.353 72.4667 250.017 70.76C251.681 69.0107 252.513 66.6853 252.513 63.784C252.513 60.8827 251.681 58.5787 250.017 56.872C248.353 55.1227 246.262 54.248 243.745 54.248C241.185 54.248 239.073 55.1227 237.409 56.872C235.745 58.5787 234.913 60.8827 234.913 63.784C234.913 66.6853 235.745 69.0107 237.409 70.76C239.073 72.4667 241.185 73.32 243.745 73.32Z" fill="black"/>
</mask>
<g mask="url(#mask0)">
<path d="M267 19L195.441 59.4592L143 84H267V52.8265V19Z" fill="white"/>
</g>
<defs>
<filter id="filter0_d" x="148" y="0" width="124" height="124" filterUnits="userSpaceOnUse" color-interpolation-filters="sRGB">
<feFlood flood-opacity="0" result="BackgroundImageFix"/>
<feColorMatrix in="SourceAlpha" type="matrix" values="0 0 0 0 0 0 0 0 0 0 0 0 0 0 0 0 0 0 127 0"/>
<feOffset dy="4"/>
<feGaussianBlur stdDeviation="2"/>
<feColorMatrix type="matrix" values="0 0 0 0 0 0 0 0 0 0 0 0 0 0 0 0 0 0 0.25 0"/>
<feBlend mode="normal" in2="BackgroundImageFix" result="effect1_dropShadow"/>
<feBlend mode="normal" in="SourceGraphic" in2="effect1_dropShadow" result="shape"/>
</filter>
</defs>
</svg>
