<svg width="282" height="110" viewBox="0 0 282 110" fill="none" xmlns="http://www.w3.org/2000/svg">
<g filter="url(#filter0_d)">
<circle cx="213" cy="37" r="65" fill="#8338F5"/>
</g>
<path d="M73.024 25.2L58.368 70H47.232L37.376 39.664L27.2 70H16.128L1.408 25.2H12.16L22.272 56.688L32.832 25.2H42.432L52.672 56.944L63.104 25.2H73.024ZM109.274 52.912C109.274 53.04 109.21 53.936 109.082 55.6H83.0335C83.5028 57.7333 84.6122 59.4187 86.3615 60.656C88.1108 61.8933 90.2868 62.512 92.8895 62.512C94.6815 62.512 96.2602 62.256 97.6255 61.744C99.0335 61.1893 100.335 60.336 101.53 59.184L106.842 64.944C103.599 68.656 98.8628 70.512 92.6335 70.512C88.7508 70.512 85.3162 69.7653 82.3295 68.272C79.3428 66.736 77.0388 64.624 75.4175 61.936C73.7962 59.248 72.9855 56.1973 72.9855 52.784C72.9855 49.4133 73.7748 46.384 75.3535 43.696C76.9748 40.9653 79.1722 38.8533 81.9455 37.36C84.7615 35.824 87.8975 35.056 91.3535 35.056C94.7242 35.056 97.7748 35.7813 100.506 37.232C103.236 38.6827 105.37 40.7733 106.906 43.504C108.484 46.192 109.274 49.328 109.274 52.912ZM91.4175 42.608C89.1562 42.608 87.2575 43.248 85.7215 44.528C84.1855 45.808 83.2468 47.5573 82.9055 49.776H99.8655C99.5242 47.6 98.5855 45.872 97.0495 44.592C95.5135 43.2693 93.6362 42.608 91.4175 42.608ZM136.273 35.056C139.473 35.056 142.374 35.8027 144.977 37.296C147.622 38.7467 149.691 40.816 151.185 43.504C152.678 46.1493 153.425 49.2427 153.425 52.784C153.425 56.3253 152.678 59.44 151.185 62.128C149.691 64.7733 147.622 66.8427 144.977 68.336C142.374 69.7867 139.473 70.512 136.273 70.512C131.537 70.512 127.931 69.0187 125.457 66.032V70H115.921V22.512H125.905V39.216C128.422 36.4427 131.878 35.056 136.273 35.056ZM134.545 62.32C137.105 62.32 139.195 61.4667 140.817 59.76C142.481 58.0107 143.312 55.6853 143.312 52.784C143.312 49.8827 142.481 47.5787 140.817 45.872C139.195 44.1227 137.105 43.248 134.545 43.248C131.985 43.248 129.873 44.1227 128.208 45.872C126.587 47.5787 125.777 49.8827 125.777 52.784C125.777 55.6853 126.587 58.0107 128.208 59.76C129.873 61.4667 131.985 62.32 134.545 62.32ZM182.316 68.336C181.335 69.0613 180.119 69.616 178.668 70C177.26 70.3413 175.767 70.512 174.188 70.512C170.092 70.512 166.913 69.4667 164.652 67.376C162.433 65.2853 161.324 62.2133 161.324 58.16V44.016H156.012V36.336H161.324V27.952H171.308V36.336H179.884V44.016H171.308V58.032C171.308 59.4827 171.671 60.6133 172.396 61.424C173.164 62.192 174.231 62.576 175.596 62.576C177.175 62.576 178.519 62.1493 179.628 61.296L182.316 68.336ZM220.586 52.912C220.586 53.04 220.522 53.936 220.394 55.6H194.346C194.815 57.7333 195.925 59.4187 197.674 60.656C199.423 61.8933 201.599 62.512 204.202 62.512C205.994 62.512 207.573 62.256 208.938 61.744C210.346 61.1893 211.647 60.336 212.842 59.184L218.154 64.944C214.911 68.656 210.175 70.512 203.946 70.512C200.063 70.512 196.629 69.7653 193.642 68.272C190.655 66.736 188.351 64.624 186.73 61.936C185.109 59.248 184.298 56.1973 184.298 52.784C184.298 49.4133 185.087 46.384 186.666 43.696C188.287 40.9653 190.485 38.8533 193.258 37.36C196.074 35.824 199.21 35.056 202.666 35.056C206.037 35.056 209.087 35.7813 211.818 37.232C214.549 38.6827 216.682 40.7733 218.218 43.504C219.797 46.192 220.586 49.328 220.586 52.912ZM202.73 42.608C200.469 42.608 198.57 43.248 197.034 44.528C195.498 45.808 194.559 47.5573 194.218 49.776H211.178C210.837 47.6 209.898 45.872 208.362 44.592C206.826 43.2693 204.949 42.608 202.73 42.608ZM262.305 22.512V70H252.769V66.032C250.294 69.0187 246.71 70.512 242.017 70.512C238.774 70.512 235.83 69.7867 233.185 68.336C230.582 66.8853 228.534 64.816 227.041 62.128C225.548 59.44 224.801 56.3253 224.801 52.784C224.801 49.2427 225.548 46.128 227.041 43.44C228.534 40.752 230.582 38.6827 233.185 37.232C235.83 35.7813 238.774 35.056 242.017 35.056C246.412 35.056 249.846 36.4427 252.321 39.216V22.512H262.305ZM243.745 62.32C246.262 62.32 248.353 61.4667 250.017 59.76C251.681 58.0107 252.513 55.6853 252.513 52.784C252.513 49.8827 251.681 47.5787 250.017 45.872C248.353 44.1227 246.262 43.248 243.745 43.248C241.185 43.248 239.073 44.1227 237.409 45.872C235.745 47.5787 234.913 49.8827 234.913 52.784C234.913 55.6853 235.745 58.0107 237.409 59.76C239.073 61.4667 241.185 62.32 243.745 62.32Z" fill="black"/>
<mask id="mask0" mask-type="alpha" maskUnits="userSpaceOnUse" x="1" y="22" width="262" height="49">
<path d="M73.024 25.2L58.368 70H47.232L37.376 39.664L27.2 70H16.128L1.408 25.2H12.16L22.272 56.688L32.832 25.2H42.432L52.672 56.944L63.104 25.2H73.024ZM109.274 52.912C109.274 53.04 109.21 53.936 109.082 55.6H83.0335C83.5028 57.7333 84.6122 59.4187 86.3615 60.656C88.1108 61.8933 90.2868 62.512 92.8895 62.512C94.6815 62.512 96.2602 62.256 97.6255 61.744C99.0335 61.1893 100.335 60.336 101.53 59.184L106.842 64.944C103.599 68.656 98.8628 70.512 92.6335 70.512C88.7508 70.512 85.3162 69.7653 82.3295 68.272C79.3428 66.736 77.0388 64.624 75.4175 61.936C73.7962 59.248 72.9855 56.1973 72.9855 52.784C72.9855 49.4133 73.7748 46.384 75.3535 43.696C76.9748 40.9653 79.1722 38.8533 81.9455 37.36C84.7615 35.824 87.8975 35.056 91.3535 35.056C94.7242 35.056 97.7748 35.7813 100.506 37.232C103.236 38.6827 105.37 40.7733 106.906 43.504C108.484 46.192 109.274 49.328 109.274 52.912ZM91.4175 42.608C89.1562 42.608 87.2575 43.248 85.7215 44.528C84.1855 45.808 83.2468 47.5573 82.9055 49.776H99.8655C99.5242 47.6 98.5855 45.872 97.0495 44.592C95.5135 43.2693 93.6362 42.608 91.4175 42.608ZM136.273 35.056C139.473 35.056 142.374 35.8027 144.977 37.296C147.622 38.7467 149.691 40.816 151.185 43.504C152.678 46.1493 153.425 49.2427 153.425 52.784C153.425 56.3253 152.678 59.44 151.185 62.128C149.691 64.7733 147.622 66.8427 144.977 68.336C142.374 69.7867 139.473 70.512 136.273 70.512C131.537 70.512 127.931 69.0187 125.457 66.032V70H115.921V22.512H125.905V39.216C128.422 36.4427 131.878 35.056 136.273 35.056ZM134.545 62.32C137.105 62.32 139.195 61.4667 140.817 59.76C142.481 58.0107 143.312 55.6853 143.312 52.784C143.312 49.8827 142.481 47.5787 140.817 45.872C139.195 44.1227 137.105 43.248 134.545 43.248C131.985 43.248 129.873 44.1227 128.208 45.872C126.587 47.5787 125.777 49.8827 125.777 52.784C125.777 55.6853 126.587 58.0107 128.208 59.76C129.873 61.4667 131.985 62.32 134.545 62.32ZM182.316 68.336C181.335 69.0613 180.119 69.616 178.668 70C177.26 70.3413 175.767 70.512 174.188 70.512C170.092 70.512 166.913 69.4667 164.652 67.376C162.433 65.2853 161.324 62.2133 161.324 58.16V44.016H156.012V36.336H161.324V27.952H171.308V36.336H179.884V44.016H171.308V58.032C171.308 59.4827 171.671 60.6133 172.396 61.424C173.164 62.192 174.231 62.576 175.596 62.576C177.175 62.576 178.519 62.1493 179.628 61.296L182.316 68.336ZM220.586 52.912C220.586 53.04 220.522 53.936 220.394 55.6H194.346C194.815 57.7333 195.925 59.4187 197.674 60.656C199.423 61.8933 201.599 62.512 204.202 62.512C205.994 62.512 207.573 62.256 208.938 61.744C210.346 61.1893 211.647 60.336 212.842 59.184L218.154 64.944C214.911 68.656 210.175 70.512 203.946 70.512C200.063 70.512 196.629 69.7653 193.642 68.272C190.655 66.736 188.351 64.624 186.73 61.936C185.109 59.248 184.298 56.1973 184.298 52.784C184.298 49.4133 185.087 46.384 186.666 43.696C188.287 40.9653 190.485 38.8533 193.258 37.36C196.074 35.824 199.21 35.056 202.666 35.056C206.037 35.056 209.087 35.7813 211.818 37.232C214.549 38.6827 216.682 40.7733 218.218 43.504C219.797 46.192 220.586 49.328 220.586 52.912ZM202.73 42.608C200.469 42.608 198.57 43.248 197.034 44.528C195.498 45.808 194.559 47.5573 194.218 49.776H211.178C210.837 47.6 209.898 45.872 208.362 44.592C206.826 43.2693 204.949 42.608 202.73 42.608ZM262.305 22.512V70H252.769V66.032C250.294 69.0187 246.71 70.512 242.017 70.512C238.774 70.512 235.83 69.7867 233.185 68.336C230.582 66.8853 228.534 64.816 227.041 62.128C225.548 59.44 224.801 56.3253 224.801 52.784C224.801 49.2427 225.548 46.128 227.041 43.44C228.534 40.752 230.582 38.6827 233.185 37.232C235.83 35.7813 238.774 35.056 242.017 35.056C246.412 35.056 249.846 36.4427 252.321 39.216V22.512H262.305ZM243.745 62.32C246.262 62.32 248.353 61.4667 250.017 59.76C251.681 58.0107 252.513 55.6853 252.513 52.784C252.513 49.8827 251.681 47.5787 250.017 45.872C248.353 44.1227 246.262 43.248 243.745 43.248C241.185 43.248 239.073 44.1227 237.409 45.872C235.745 47.5787 234.913 49.8827 234.913 52.784C234.913 55.6853 235.745 58.0107 237.409 59.76C239.073 61.4667 241.185 62.32 243.745 62.32Z" fill="black"/>
</mask>
<g mask="url(#mask0)">
<path d="M267 8L195.441 48.4592L143 73H267V41.8265V8Z" fill="white"/>
</g>
<defs>
<filter id="filter0_d" x="144" y="-28" width="138" height="138" filterUnits="userSpaceOnUse" color-interpolation-filters="sRGB">
<feFlood flood-opacity="0" result="BackgroundImageFix"/>
<feColorMatrix in="SourceAlpha" type="matrix" values="0 0 0 0 0 0 0 0 0 0 0 0 0 0 0 0 0 0 127 0"/>
<feOffset dy="4"/>
<feGaussianBlur stdDeviation="2"/>
<feColorMatrix type="matrix" values="0 0 0 0 0 0 0 0 0 0 0 0 0 0 0 0 0 0 0.25 0"/>
<feBlend mode="normal" in2="BackgroundImageFix" result="effect1_dropShadow"/>
<feBlend mode="normal" in="SourceGraphic" in2="effect1_dropShadow" result="shape"/>
</filter>
</defs>
</svg>
